<svg width="61" height="61" viewBox="0 0 61 61" fill="none" xmlns="http://www.w3.org/2000/svg">
<path d="M40.6668 7.625C39.3186 7.625 38.0257 8.16056 37.0724 9.11387C36.1191 10.0672 35.5835 11.3601 35.5835 12.7083V27.9583C35.5835 29.3065 36.1191 30.5995 37.0724 31.5528C38.0257 32.5061 39.3186 33.0417 40.6668 33.0417C41.3409 33.0417 41.9874 33.3095 42.4641 33.7861C42.9407 34.2628 43.2085 34.9092 43.2085 35.5833V38.125C43.2085 39.4732 42.6729 40.7662 41.7196 41.7195C40.7663 42.6728 39.4733 43.2083 38.1252 43.2083C37.4511 43.2083 36.8046 43.4761 36.3279 43.9528C35.8513 44.4294 35.5835 45.0759 35.5835 45.75V50.8333C35.5835 51.5074 35.8513 52.1539 36.3279 52.6306C36.8046 53.1072 37.4511 53.375 38.1252 53.375C42.1697 53.375 46.0486 51.7683 48.9085 48.9084C51.7685 46.0485 53.3752 42.1696 53.3752 38.125V12.7083C53.3752 11.3601 52.8396 10.0672 51.8863 9.11387C50.933 8.16056 49.64 7.625 48.2918 7.625H40.6668Z" fill="#ECEFFD"/>
<path d="M12.7083 7.625C11.3601 7.625 10.0672 8.16056 9.11387 9.11387C8.16056 10.0672 7.625 11.3601 7.625 12.7083V27.9583C7.625 29.3065 8.16056 30.5995 9.11387 31.5528C10.0672 32.5061 11.3601 33.0417 12.7083 33.0417C13.3824 33.0417 14.0289 33.3095 14.5056 33.7861C14.9822 34.2628 15.25 34.9092 15.25 35.5833V38.125C15.25 39.4732 14.7144 40.7662 13.7611 41.7195C12.8078 42.6728 11.5149 43.2083 10.1667 43.2083C9.49257 43.2083 8.84609 43.4761 8.36944 43.9528C7.89278 44.4294 7.625 45.0759 7.625 45.75V50.8333C7.625 51.5074 7.89278 52.1539 8.36944 52.6306C8.84609 53.1072 9.49257 53.375 10.1667 53.375C14.2112 53.375 18.0901 51.7683 20.95 48.9084C23.81 46.0485 25.4167 42.1696 25.4167 38.125V12.7083C25.4167 11.3601 24.8811 10.0672 23.9278 9.11387C22.9745 8.16056 21.6815 7.625 20.3333 7.625H12.7083Z" fill="#ECEFFD"/>
</svg>
