<svg width="1280" height="373" viewBox="0 0 1280 373" fill="none" xmlns="http://www.w3.org/2000/svg">
<path d="M25.8461 284.989L38.7488 294.033L29.7202 306.958L16.8175 297.914L25.8461 284.989Z" fill="#FA0605"/>
<path d="M8.13165 333.794L4.98194 336.949L1.83229 333.794V330.639L8.13165 333.794Z" fill="#FA0605"/>
<path d="M91.6785 268.848L109.729 281.529L97.0693 299.611L79.0186 286.929L91.6785 268.848Z" fill="#FA0605"/>
<path d="M67.9731 316.504L75.7016 321.949L70.2655 329.691L62.5371 324.246L67.9731 316.504Z" fill="#FA0605"/>
<path d="M40.8217 357.992L43.3985 359.807L41.5871 362.388L39.0103 360.573L40.8217 357.992Z" fill="#FA0605"/>
<path d="M154.932 251L180.718 269.117L162.633 294.948L136.846 276.832L154.932 251Z" fill="#FA0605"/>
<path d="M134.554 304.838L142.282 310.285L136.844 318.026L129.116 312.579L134.554 304.838Z" fill="#FA0605"/>
<path d="M106.694 341.865L114.413 347.324L108.962 355.057L101.243 349.597L106.694 341.865Z" fill="#FA0605"/>
<path d="M77.2746 370.105L97.8887 384.621L83.3976 405.271L62.7834 390.755L77.2746 370.105Z" fill="#FA0605"/>
<path d="M195.996 289.5L208.901 298.543L199.874 311.47L186.969 302.427L195.996 289.5Z" fill="#FA0605"/>
<path d="M171.448 332.734L179.178 338.18L173.742 345.922L166.012 340.477L171.448 332.734Z" fill="#FA0605"/>
<path d="M159.317 371.656L146.719 390.587L130.97 377.966L143.569 359.035L159.317 371.656Z" fill="#FA0605"/>
<path d="M260.291 264.646L286.08 282.76L267.998 308.594L242.208 290.48L260.291 264.646Z" fill="#FA0605"/>
<path d="M250.659 324.328L238.06 340.103L222.311 327.483L234.91 311.707L250.659 324.328Z" fill="#FA0605"/>
<path d="M208.726 349.276L226.748 362L214.046 380.053L196.024 367.329L208.726 349.276Z" fill="#FA0605"/>
<path d="M326.693 264.343L342.171 275.203L331.329 290.707L315.851 279.847L326.693 264.343Z" fill="#FA0605"/>
<path d="M298.823 301.343L314.294 312.215L303.44 327.712L287.97 316.84L298.823 301.343Z" fill="#FA0605"/>
<path d="M272.754 335.76L293.383 350.254L278.915 370.919L258.285 356.425L272.754 335.76Z" fill="#FA0605"/>
<path d="M391.477 255.186L404.37 264.244L395.328 277.16L382.434 268.101L391.477 255.186Z" fill="#FA0605"/>
<path d="M366.196 293.987L379.075 303.066L370.011 315.968L357.132 306.889L366.196 293.987Z" fill="#FA0605"/>
<path d="M338.299 331.047L351.198 340.098L342.164 353.02L329.264 343.969L338.299 331.047Z" fill="#FA0605"/>
<path d="M310.469 368.058L323.365 377.111L314.327 390.03L301.431 380.976L310.469 368.058Z" fill="#FA0605"/>
<path d="M426.862 274.363L447.494 288.854L433.028 309.521L412.396 295.03L426.862 274.363Z" fill="#FA0605"/>
<path d="M398.987 311.326L422.201 327.625L405.929 350.879L382.716 334.579L398.987 311.326Z" fill="#FA0605"/>
<path d="M382.946 368.497L379.796 371.652L373.497 368.497L376.647 365.342L382.946 368.497Z" fill="#FA0605"/>
<path d="M495.793 275.84L500.945 279.471L497.32 284.632L492.168 281.001L495.793 275.84Z" fill="#FA0605"/>
<path d="M470.506 314.674L475.663 318.299L472.045 323.464L466.888 319.84L470.506 314.674Z" fill="#FA0605"/>
<path d="M442.667 351.635L447.83 355.25L444.221 360.422L439.058 356.807L442.667 351.635Z" fill="#FA0605"/>
<path d="M1217.07 3.40801L1211.91 7.0332L1215.53 12.1982L1220.69 8.57296L1217.07 3.40801Z" fill="#F57C00"/>
<path d="M1243.94 33.5628L1231.06 42.6465L1240.13 55.5447L1253.01 46.461L1243.94 33.5628Z" fill="#F57C00"/>
<path d="M1273.56 73.0266L1260.68 82.1055L1269.75 95.0068L1282.62 85.9279L1273.56 73.0266Z" fill="#F57C00"/>
<path d="M1171.67 32.8778L1177.97 39.1881L1184.27 36.0329L1177.97 29.7227L1171.67 32.8778Z" fill="#F57C00"/>
<path d="M1206.91 61.4448L1193.98 70.459L1202.98 83.4045L1215.91 74.3903L1206.91 61.4448Z" fill="#F57C00"/>
<path d="M1234.93 98.4071L1222.01 107.436L1231.03 120.373L1243.94 111.345L1234.93 98.4071Z" fill="#F57C00"/>
<path d="M1289.42 165.448L1263.63 183.559L1281.71 209.393L1307.5 191.282L1289.42 165.448Z" fill="#F57C00"/>
<path d="M1115.89 6.50333L1097.84 19.1895L1110.5 37.269L1128.55 24.5829L1115.89 6.50333Z" fill="#F57C00"/>
<path d="M1143.72 43.4224L1125.68 56.1152L1138.35 74.1904L1156.39 61.4976L1143.72 43.4224Z" fill="#F57C00"/>
<path d="M1168.99 82.2579L1150.94 94.9375L1163.59 113.022L1181.65 100.342L1168.99 82.2579Z" fill="#F57C00"/>
<path d="M1198.36 110.571L1167.39 132.277L1189.06 163.297L1220.03 141.591L1198.36 110.571Z" fill="#F57C00"/>
<path d="M1221.43 162.481L1205.94 173.334L1216.78 188.846L1232.26 177.993L1221.43 162.481Z" fill="#F57C00"/>
<path d="M1237.82 212.723L1244.11 225.344L1256.71 215.878L1250.41 203.258L1237.82 212.723Z" fill="#F57C00"/>
<path d="M1278.98 239.139L1263.5 250.004L1274.35 265.508L1289.82 254.644L1278.98 239.139Z" fill="#F57C00"/>
<path d="M1051.83 -7.00002L1028.65 9.34766L1044.97 32.5672L1068.15 16.2196L1051.83 -7.00002Z" fill="#F57C00"/>
<path d="M1078.13 38.771L1067.81 46L1075.02 56.3451L1085.35 49.1161L1078.13 38.771Z" fill="#F57C00"/>
<path d="M1102.62 81.9139L1094.89 87.3574L1100.32 95.1011L1108.05 89.6575L1102.62 81.9139Z" fill="#F57C00"/>
<path d="M1128.67 116.353L1118.35 123.582L1125.56 133.927L1135.89 126.698L1128.67 116.353Z" fill="#F57C00"/>
<path d="M1159.08 151.639L1146.2 160.713L1155.26 173.617L1168.14 164.543L1159.08 151.639Z" fill="#F57C00"/>
<path d="M1177.97 200.102L1181.12 206.413L1187.42 203.258L1184.27 196.947L1177.97 200.102Z" fill="#F57C00"/>
<path d="M1210.69 236.157L1205.56 239.816L1209.21 244.957L1214.34 241.298L1210.69 236.157Z" fill="#F57C00"/>
<path d="M1231.52 278.98L1234.67 282.135L1240.96 278.98L1237.82 272.67L1231.52 278.98Z" fill="#F57C00"/>
<path d="M1253.56 313.685L1259.86 323.151L1269.31 316.84L1263.01 307.375L1253.56 313.685Z" fill="#F57C00"/>
<path d="M979.54 -1.82617L982.689 1.32898H985.839L982.689 -1.82617H979.54Z" fill="#F57C00"/>
<path d="M1011.58 27.1331L998.678 36.1836L1007.71 49.1055L1020.61 40.0549L1011.58 27.1331Z" fill="#F57C00"/>
<path d="M1026.79 73.8982L1036.23 83.3636L1045.68 77.0533L1039.38 67.5879L1026.79 73.8982Z" fill="#F57C00"/>
<path d="M1066.55 105.552L1056.21 112.768L1063.41 123.123L1073.75 115.908L1066.55 105.552Z" fill="#F57C00"/>
<path d="M1091.83 144.34L1081.5 151.566L1088.71 161.914L1099.04 154.687L1091.83 144.34Z" fill="#F57C00"/>
<path d="M1108.68 187.482L1114.98 200.103L1124.43 190.637L1118.13 181.172L1108.68 187.482Z" fill="#F57C00"/>
<path d="M1144.11 224.657L1138.94 228.27L1142.55 233.443L1147.72 229.831L1144.11 224.657Z" fill="#F57C00"/>
<path d="M1165.37 266.356L1168.52 272.667L1174.82 266.356L1171.67 263.201L1165.37 266.356Z" fill="#F57C00"/>
<path d="M1197.24 300.389L1192.08 304.008L1195.69 309.177L1200.85 305.558L1197.24 300.389Z" fill="#F57C00"/>
<path d="M1225.12 337.359L1217.4 342.814L1222.85 350.55L1230.57 345.094L1225.12 337.359Z" fill="#F57C00"/>
<path d="M945.918 22.3699L940.771 26.0078L944.402 31.1639L949.55 27.526L945.918 22.3699Z" fill="#F57C00"/>
<path d="M966.941 64.4286L970.09 67.5837L976.39 64.4286L973.24 61.2734L966.941 64.4286Z" fill="#F57C00"/>
<path d="M995.288 102.29L998.438 105.445L1001.59 102.29L998.438 99.1348L995.288 102.29Z" fill="#F57C00"/>
<path d="M1026.23 139.617L1023.63 141.406L1025.42 144.005L1028.01 142.216L1026.23 139.617Z" fill="#F57C00"/>
<path d="M1052.97 169.57L1042.64 176.799L1049.86 187.144L1060.18 179.915L1052.97 169.57Z" fill="#F57C00"/>
<path d="M1082.68 209.316L1072.35 216.549L1079.57 226.891L1089.9 219.659L1082.68 209.316Z" fill="#F57C00"/>
<path d="M1105.42 249.867L1100.26 253.484L1103.87 258.655L1109.03 255.037L1105.42 249.867Z" fill="#F57C00"/>
<path d="M1135.09 289.457L1129.92 293.074L1133.54 298.245L1138.7 294.627L1135.09 289.457Z" fill="#F57C00"/>
<path d="M1160.23 328.376L1155.08 332.006L1158.7 337.167L1163.85 333.537L1160.23 328.376Z" fill="#F57C00"/>
<path d="M1184.27 370.479H1187.42V367.324L1184.27 370.479Z" fill="#F57C00"/>
<path d="M881.883 8.80199L876.716 12.4121L880.32 17.5878L885.487 13.9777L881.883 8.80199Z" fill="#F57C00"/>
<path d="M903.947 51.8114L907.097 58.1216L910.246 54.9665L907.097 48.6562L903.947 51.8114Z" fill="#F57C00"/>
<path d="M934.262 89.1288L931.676 90.9297L933.474 93.5204L936.06 91.7195L934.262 89.1288Z" fill="#F57C00"/>
<path d="M959.553 127.871L956.971 129.678L958.775 132.264L961.357 130.457L959.553 127.871Z" fill="#F57C00"/>
<path d="M985.839 168.552V171.707L992.139 168.552L988.989 165.396L985.839 168.552Z" fill="#F57C00"/>
<path d="M1011.04 206.413L1014.19 209.568L1017.34 206.413L1014.19 203.258L1011.04 206.413Z" fill="#F57C00"/>
<path d="M870.145 75.6188L865 79.2598L868.635 84.4134L873.779 80.7724L870.145 75.6188Z" fill="#F57C00"/>
<path d="M895.569 114.382L892.974 116.17L894.759 118.769L897.354 116.981L895.569 114.382Z" fill="#F57C00"/>
<path d="M919.695 155.929L922.845 159.084L925.995 155.929L922.845 152.773L919.695 155.929Z" fill="#F57C00"/>
<path d="M944.893 193.794L948.042 196.949L951.192 193.794V190.639L944.893 193.794Z" fill="#F57C00"/>
<path d="M487.801 11.8787L494.101 21.344L503.55 15.0337L497.25 5.56836L487.801 11.8787Z" fill="#3B3CE1"/>
<path d="M421.657 -0.743566L427.957 11.877L440.556 2.41155L434.256 -10.209L421.657 -0.743566Z" fill="#3B3CE1"/>
<path d="M458.774 32.1415L451.024 37.5566L456.43 45.3202L464.18 39.9051L458.774 32.1415Z" fill="#3B3CE1"/>
<path d="M394.698 18.6697L384.391 25.9277L391.636 36.2526L401.943 28.9946L394.698 18.6697Z" fill="#3B3CE1"/>
<path d="M419.991 57.4709L412.271 62.9297L417.72 70.6629L425.44 65.2041L419.991 57.4709Z" fill="#3B3CE1"/>
<path d="M329.123 13.9921L326.546 15.8066L328.358 18.3879L330.935 16.5733L329.123 13.9921Z" fill="#3B3CE1"/>
<path d="M356.01 43.9456L345.7 51.2012L352.943 61.5286L363.253 54.2731L356.01 43.9456Z" fill="#3B3CE1"/>
<path d="M377.562 90.7606L380.711 97.0709L387.011 93.9157L380.711 87.6055L377.562 90.7606Z" fill="#3B3CE1"/>
<path d="M263.251 -2.13542L255.532 3.32422L260.982 11.0565L268.701 5.59688L263.251 -2.13542Z" fill="#3B3CE1"/>
<path d="M292.67 26.105L272.056 40.6211L286.547 61.2709L307.161 46.7547L292.67 26.105Z" fill="#3B3CE1"/>
<path d="M319.026 71.874L308.703 79.1094L315.925 89.4506L326.249 82.2153L319.026 71.874Z" fill="#3B3CE1"/>
<path d="M339.765 119.155L342.915 125.465L349.214 119.155L342.915 116L339.765 119.155Z" fill="#3B3CE1"/>
<path d="M198.497 -11.2658L190.767 -5.82031L196.203 1.9224L203.933 -3.52304L198.497 -11.2658Z" fill="#3B3CE1"/>
<path d="M210.628 27.6558L223.226 46.5865L238.975 33.966L226.376 15.0352L210.628 27.6558Z" fill="#3B3CE1"/>
<path d="M254.911 58.3956L239.441 69.2676L250.294 84.7644L265.764 73.8924L254.911 58.3956Z" fill="#3B3CE1"/>
<path d="M276.915 103.406L271.753 107.023L275.364 112.194L280.526 108.576L276.915 103.406Z" fill="#3B3CE1"/>
<path d="M304.733 140.451L299.571 144.068L304.987 151.824L310.149 148.207L304.733 140.451Z" fill="#3B3CE1"/>
<path d="M164.022 -2.00104L146 10.7227L158.702 28.7757L176.724 16.052L164.022 -2.00104Z" fill="#3B3CE1"/>
<path d="M190.959 44.9026L175.47 55.75L186.298 71.2657L201.787 60.4183L190.959 44.9026Z" fill="#3B3CE1"/>
<path d="M215.45 88.1247L205.128 95.3613L212.352 105.701L222.674 98.4647L215.45 88.1247Z" fill="#3B3CE1"/>
<path d="M238.975 134.932V138.088L242.125 134.932V131.777L238.975 134.932Z" fill="#3B3CE1"/>
<path d="M97.191 -8.23952L76.5618 6.25391L91.0302 26.9188L111.659 12.4254L97.191 -8.23952Z" fill="#3B3CE1"/>
<path d="M122.754 41.9731L115.037 47.4355L120.49 55.1659L128.207 49.7035L122.754 41.9731Z" fill="#3B3CE1"/>
<path d="M144.484 84.4481L147.633 87.6033H150.783V81.293L144.484 84.4481Z" fill="#3B3CE1"/>
<path d="M175.143 122.25L172.558 124.053L174.357 126.642L176.942 124.839L175.143 122.25Z" fill="#3B3CE1"/>
<path d="M31.6461 -12.9529L18.7465 -3.90234L27.7814 9.01952L40.681 -0.0309895L31.6461 -12.9529Z" fill="#3B3CE1"/>
<path d="M59.4762 24.0577L46.5797 33.1113L55.6178 46.03L68.5142 36.9764L59.4762 24.0577Z" fill="#3B3CE1"/>
<path d="M88.1082 56.6479L67.494 71.1641L81.9852 91.8138L102.599 77.2977L88.1082 56.6479Z" fill="#3B3CE1"/>
<path d="M103.538 109.688L109.837 119.154L116.137 112.843L112.987 106.533L103.538 109.688Z" fill="#3B3CE1"/>
<path d="M12.1965 62.3649L18.496 68.6752L24.7954 62.3649L18.496 56.0547L12.1965 62.3649Z" fill="#3B3CE1"/>
<path d="M37.394 100.226L43.6934 109.692L53.1425 103.381L46.8431 93.916L37.394 100.226Z" fill="#3B3CE1"/>
</svg>
