<svg width="250" height="444" viewBox="0 0 250 444" fill="none" xmlns="http://www.w3.org/2000/svg">
<g clipPath="url(#clip0_997_51376)">
<rect width="250" height="444" fill="#4163E7"/>
<g style="mix-blend-mode:color-dodge">
<path fillRule="evenodd" clipRule="evenodd" d="M31.8811 21.6346L56.3576 46.1105L80.8338 21.6345L69.0786 9.87936C62.0529 2.85372 50.6621 2.85369 43.6364 9.87931L31.8811 21.6346Z" fill="#4163E7"/>
<path fillRule="evenodd" clipRule="evenodd" d="M80.8336 -17.1645L79.2319 -15.5628C72.2064 -8.5371 72.2064 2.85362 79.232 9.87926L80.8336 11.4809L95.1562 -2.84172L80.8336 -17.1645Z" fill="#99AEFF"/>
<path d="M7.40451 -2.84201L31.881 -27.3182L43.6358 -15.5634C50.6615 -8.53773 50.6615 2.85318 43.6357 9.87885L31.8805 21.634L7.40451 -2.84201Z" fill="#2148E0"/>
<path fillRule="evenodd" clipRule="evenodd" d="M139.192 21.6326L163.668 46.1086L188.144 21.6326L176.389 9.87741C169.363 2.85176 157.973 2.85174 150.947 9.87735L139.192 21.6326Z" fill="#4163E7"/>
<path fillRule="evenodd" clipRule="evenodd" d="M188.144 -17.1664L186.542 -15.5647C179.517 -8.53905 179.517 2.85167 186.543 9.8773L188.144 11.4789L202.467 -2.84368L188.144 -17.1664Z" fill="#99AEFF"/>
<path d="M114.715 -2.84396L139.192 -27.3202L150.946 -15.5654C157.972 -8.53969 157.972 2.85123 150.946 9.87689L139.191 21.632L114.715 -2.84396Z" fill="#2148E0"/>
<path fillRule="evenodd" clipRule="evenodd" d="M246.504 21.6346L270.981 46.1105L295.457 21.6345L283.702 9.87936C276.676 2.85372 265.285 2.85369 258.259 9.87931L246.504 21.6346Z" fill="#4163E7"/>
<path d="M222.028 -2.84201L246.504 -27.3182L258.259 -15.5634C265.285 -8.53773 265.285 2.85318 258.259 9.87885L246.504 21.634L222.028 -2.84201Z" fill="#2148E0"/>
<path fillRule="evenodd" clipRule="evenodd" d="M-14.7216 96.8566C-7.69589 103.882 3.69497 103.882 10.7206 96.8566L22.4753 85.1019L-2.00071 60.6257L-26.4764 85.1017L-14.7216 96.8566Z" fill="#4163E7"/>
<path fillRule="evenodd" clipRule="evenodd" d="M-26.4763 134.054L-1.99987 158.53L22.4764 134.054L10.7212 122.299C3.69551 115.274 -7.6953 115.274 -14.721 122.299L-26.4763 134.054Z" fill="#4163E7"/>
<path fillRule="evenodd" clipRule="evenodd" d="M22.4762 95.2555L20.8745 96.8572C13.849 103.883 13.849 115.274 20.8746 122.299L22.4762 123.901L36.7988 109.578L22.4762 95.2555Z" fill="#99AEFF"/>
<path fillRule="evenodd" clipRule="evenodd" d="M92.589 96.8546C99.6147 103.88 111.006 103.88 118.031 96.8546L129.786 85.1L105.31 60.6237L80.8341 85.0997L92.589 96.8546Z" fill="#4163E7"/>
<path fillRule="evenodd" clipRule="evenodd" d="M80.8342 134.053L105.311 158.528L129.787 134.053L118.032 122.297C111.006 115.272 99.6152 115.272 92.5896 122.297L80.8342 134.053Z" fill="#4163E7"/>
<path fillRule="evenodd" clipRule="evenodd" d="M129.787 95.2535L128.185 96.8552C121.16 103.881 121.16 115.272 128.185 122.297L129.787 123.899L144.109 109.576L129.787 95.2535Z" fill="#99AEFF"/>
<path d="M56.3576 109.576L80.8341 85.0997L92.5889 96.8545C99.6146 103.88 99.6146 115.271 92.5889 122.297L80.8336 134.052L56.3576 109.576Z" fill="#2148E0"/>
<path fillRule="evenodd" clipRule="evenodd" d="M199.901 96.8546C206.927 103.88 218.318 103.88 225.344 96.8546L237.098 85.1L212.622 60.6237L188.147 85.0997L199.901 96.8546Z" fill="#4163E7"/>
<path fillRule="evenodd" clipRule="evenodd" d="M188.147 134.053L212.623 158.528L237.099 134.053L225.344 122.297C218.319 115.272 206.928 115.272 199.902 122.297L188.147 134.053Z" fill="#4163E7"/>
<path fillRule="evenodd" clipRule="evenodd" d="M237.099 95.2535L235.498 96.8552C228.472 103.881 228.472 115.272 235.498 122.297L237.099 123.899L251.422 109.576L237.099 95.2535Z" fill="#99AEFF"/>
<path d="M163.67 109.576L188.147 85.0997L199.901 96.8545C206.927 103.88 206.927 115.271 199.901 122.297L188.146 134.052L163.67 109.576Z" fill="#2148E0"/>
<path fillRule="evenodd" clipRule="evenodd" d="M43.6359 209.278C50.6615 216.304 62.0524 216.304 69.0781 209.278L80.8327 197.524L56.3567 173.048L31.881 197.524L43.6359 209.278Z" fill="#4163E7"/>
<path fillRule="evenodd" clipRule="evenodd" d="M31.8811 246.476L56.3576 270.952L80.8338 246.476L69.0786 234.721C62.0529 227.696 50.6621 227.695 43.6364 234.721L31.8811 246.476Z" fill="#4163E7"/>
<path fillRule="evenodd" clipRule="evenodd" d="M80.8336 207.677L79.2319 209.279C72.2064 216.305 72.2064 227.695 79.232 234.721L80.8336 236.323L95.1562 222L80.8336 207.677Z" fill="#99AEFF"/>
<path d="M7.40451 222L31.881 197.524L43.6358 209.278C50.6615 216.304 50.6615 227.695 43.6357 234.721L31.8805 246.476L7.40451 222Z" fill="#2148E0"/>
<path fillRule="evenodd" clipRule="evenodd" d="M150.948 209.278C157.974 216.304 169.365 216.304 176.391 209.278L188.145 197.524L163.669 173.048L139.193 197.524L150.948 209.278Z" fill="#4163E7"/>
<path fillRule="evenodd" clipRule="evenodd" d="M139.194 246.476L163.67 270.952L188.146 246.476L176.391 234.721C169.365 227.696 157.975 227.695 150.949 234.721L139.194 246.476Z" fill="#4163E7"/>
<path fillRule="evenodd" clipRule="evenodd" d="M188.146 207.677L186.544 209.279C179.519 216.305 179.519 227.695 186.544 234.721L188.146 236.323L202.469 222L188.146 207.677Z" fill="#99AEFF"/>
<path d="M114.717 222L139.193 197.524L150.948 209.278C157.974 216.304 157.974 227.695 150.948 234.721L139.193 246.476L114.717 222Z" fill="#2148E0"/>
<path fillRule="evenodd" clipRule="evenodd" d="M258.259 209.278C265.285 216.304 276.675 216.304 283.701 209.278L295.456 197.524L270.98 173.048L246.504 197.524L258.259 209.278Z" fill="#4163E7"/>
<path fillRule="evenodd" clipRule="evenodd" d="M246.504 246.476L270.981 270.952L295.457 246.476L283.702 234.721C276.676 227.696 265.285 227.695 258.259 234.721L246.504 246.476Z" fill="#4163E7"/>
<path d="M222.028 222L246.504 197.524L258.259 209.278C265.285 216.304 265.285 227.695 258.259 234.721L246.504 246.476L222.028 222Z" fill="#2148E0"/>
<path fillRule="evenodd" clipRule="evenodd" d="M-14.7216 321.702C-7.69589 328.728 3.69497 328.728 10.7206 321.702L22.4753 309.948L-2.00071 285.471L-26.4764 309.947L-14.7216 321.702Z" fill="#4163E7"/>
<path fillRule="evenodd" clipRule="evenodd" d="M-26.4763 358.9L-1.99987 383.376L22.4764 358.9L10.7212 347.145C3.69551 340.119 -7.6953 340.119 -14.721 347.145L-26.4763 358.9Z" fill="#4163E7"/>
<path fillRule="evenodd" clipRule="evenodd" d="M22.4762 320.101L20.8745 321.703C13.849 328.729 13.849 340.119 20.8746 347.145L22.4762 348.746L36.7988 334.424L22.4762 320.101Z" fill="#99AEFF"/>
<path fillRule="evenodd" clipRule="evenodd" d="M92.589 321.702C99.6147 328.728 111.006 328.728 118.031 321.702L129.786 309.948L105.31 285.471L80.8341 309.947L92.589 321.702Z" fill="#4163E7"/>
<path fillRule="evenodd" clipRule="evenodd" d="M80.8342 358.9L105.311 383.376L129.787 358.9L118.032 347.145C111.006 340.119 99.6152 340.119 92.5896 347.145L80.8342 358.9Z" fill="#4163E7"/>
<path fillRule="evenodd" clipRule="evenodd" d="M129.787 320.101L128.185 321.703C121.16 328.729 121.16 340.119 128.185 347.145L129.787 348.746L144.109 334.424L129.787 320.101Z" fill="#99AEFF"/>
<path d="M56.3576 334.424L80.8341 309.947L92.5889 321.702C99.6146 328.728 99.6146 340.119 92.5889 347.144L80.8336 358.9L56.3576 334.424Z" fill="#2148E0"/>
<path fillRule="evenodd" clipRule="evenodd" d="M199.901 321.7C206.927 328.726 218.318 328.726 225.344 321.7L237.098 309.946L212.622 285.469L188.147 309.945L199.901 321.7Z" fill="#4163E7"/>
<path fillRule="evenodd" clipRule="evenodd" d="M188.147 358.898L212.623 383.374L237.099 358.898L225.344 347.143C218.319 340.117 206.928 340.117 199.902 347.143L188.147 358.898Z" fill="#4163E7"/>
<path fillRule="evenodd" clipRule="evenodd" d="M237.099 320.099L235.498 321.701C228.472 328.727 228.472 340.117 235.498 347.143L237.099 348.745L251.422 334.422L237.099 320.099Z" fill="#99AEFF"/>
<path d="M163.67 334.422L188.147 309.945L199.901 321.7C206.927 328.726 206.927 340.117 199.901 347.143L188.146 358.898L163.67 334.422Z" fill="#2148E0"/>
<path fillRule="evenodd" clipRule="evenodd" d="M43.6359 434.12C50.6615 441.146 62.0524 441.146 69.0781 434.12L80.8327 422.366L56.3567 397.889L31.881 422.365L43.6359 434.12Z" fill="#4163E7"/>
<path fillRule="evenodd" clipRule="evenodd" d="M80.8336 432.519L79.2319 434.121C72.2064 441.146 72.2064 452.537 79.232 459.563L80.8336 461.164L95.1562 446.842L80.8336 432.519Z" fill="#99AEFF"/>
<path d="M7.40451 446.842L31.881 422.365L43.6358 434.12C50.6615 441.146 50.6615 452.537 43.6357 459.562L31.8805 471.318L7.40451 446.842Z" fill="#2148E0"/>
<path fillRule="evenodd" clipRule="evenodd" d="M150.946 434.12C157.972 441.146 169.363 441.146 176.389 434.12L188.143 422.366L163.667 397.889L139.192 422.365L150.946 434.12Z" fill="#4163E7"/>
<path fillRule="evenodd" clipRule="evenodd" d="M188.144 432.519L186.542 434.121C179.517 441.146 179.517 452.537 186.543 459.563L188.144 461.164L202.467 446.842L188.144 432.519Z" fill="#99AEFF"/>
<path d="M114.715 446.842L139.192 422.365L150.946 434.12C157.972 441.146 157.972 452.537 150.946 459.562L139.191 471.318L114.715 446.842Z" fill="#2148E0"/>
<path fillRule="evenodd" clipRule="evenodd" d="M258.259 434.122C265.285 441.148 276.675 441.148 283.701 434.122L295.456 422.368L270.98 397.891L246.504 422.367L258.259 434.122Z" fill="#4163E7"/>
<path d="M222.028 446.844L246.504 422.367L258.259 434.122C265.285 441.148 265.285 452.539 258.259 459.564L246.504 471.32L222.028 446.844Z" fill="#2148E0"/>
</g>
<path d="M211.91 203.955H211.852L178.395 218.185L132.619 237.654C132.44 237.729 132.249 237.768 132.054 237.769C131.86 237.77 131.668 237.733 131.488 237.66L84.2615 218.144L49.9828 203.978L49.9304 203.955H49.8721C49.3312 203.956 48.8127 204.17 48.4302 204.551C48.0478 204.932 47.8326 205.448 47.832 205.987V294.234C47.8326 294.773 48.0478 295.289 48.4302 295.67C48.8127 296.051 49.3312 296.266 49.8721 296.266H211.91C212.451 296.266 212.97 296.051 213.352 295.67C213.734 295.289 213.95 294.773 213.95 294.234V205.987C213.95 205.448 213.734 204.932 213.352 204.551C212.97 204.17 212.451 203.956 211.91 203.955Z" fill="white"/>
<path d="M212.056 204.536C211.996 204.536 211.938 204.518 211.889 204.484L131.29 148.574C131.045 148.405 130.754 148.314 130.455 148.315C130.157 148.315 129.866 148.407 129.621 148.577L49.6025 204.483C49.5392 204.527 49.461 204.544 49.3851 204.531C49.3091 204.518 49.2416 204.475 49.1974 204.412C49.1531 204.349 49.1356 204.271 49.1488 204.196C49.162 204.12 49.2048 204.052 49.2677 204.008L129.286 148.101C129.629 147.863 130.036 147.735 130.454 147.734C130.872 147.734 131.28 147.86 131.624 148.098L212.223 204.008C212.274 204.043 212.312 204.093 212.332 204.152C212.352 204.21 212.353 204.274 212.334 204.333C212.315 204.392 212.278 204.443 212.228 204.48C212.178 204.516 212.118 204.536 212.056 204.536Z" fill="#3F3D56"/>
<path d="M54.1738 206.517L130.533 150.148L207.472 210.528L134.468 253.635L94.8324 244.637L54.1738 206.517Z" fill="#E6E6E6"/>
<path d="M98.178 284.687H60.4545C59.9871 284.687 59.5385 284.503 59.2075 284.174C58.8765 283.846 58.6901 283.399 58.6895 282.934C58.6888 282.468 58.8738 282.021 59.2038 281.692C59.5338 281.362 59.9819 281.176 60.4493 281.176H98.178C98.6454 281.175 99.0939 281.359 99.4249 281.688C99.756 282.017 99.9423 282.463 99.943 282.929C99.9437 283.394 99.7587 283.841 99.4286 284.171C99.0986 284.5 98.6506 284.686 98.1832 284.687H98.178Z" fill="#2148E0"/>
<path d="M73.9895 277.138H60.4552C59.988 277.138 59.5398 276.954 59.209 276.625C58.8783 276.296 58.6921 275.85 58.6914 275.385C58.6907 274.92 58.8756 274.473 59.2053 274.143C59.5351 273.814 59.9828 273.628 60.45 273.627H73.9895C74.2211 273.626 74.4505 273.671 74.6646 273.759C74.8787 273.847 75.0733 273.976 75.2373 274.139C75.4013 274.302 75.5316 274.495 75.6205 274.708C75.7095 274.921 75.7555 275.149 75.7558 275.38C75.7561 275.61 75.7108 275.839 75.6225 276.052C75.5342 276.265 75.4045 276.459 75.241 276.622C75.0774 276.786 74.8832 276.915 74.6694 277.004C74.4556 277.092 74.2263 277.138 73.9948 277.138H73.9895Z" fill="#4163E7"/>
<path d="M131.607 237.914C131.32 237.914 131.036 237.859 130.771 237.751L83.6777 218.288V157.364C83.6784 156.825 83.8935 156.309 84.2759 155.928C84.6584 155.547 85.1769 155.333 85.7178 155.332H176.063C176.604 155.333 177.122 155.547 177.505 155.928C177.887 156.309 178.102 156.825 178.103 157.364V218.33L178.014 218.368L132.469 237.741C132.196 237.856 131.903 237.914 131.607 237.914Z" fill="white"/>
<path d="M131.608 238.058C131.303 238.058 131 237.999 130.717 237.884L83.5332 218.383V157.363C83.5339 156.785 83.7644 156.232 84.1741 155.824C84.5839 155.416 85.1395 155.186 85.719 155.186H176.064C176.643 155.186 177.199 155.416 177.609 155.824C178.019 156.232 178.249 156.785 178.25 157.363V218.425L132.527 237.874C132.236 237.995 131.924 238.058 131.608 238.058ZM84.116 217.995L130.939 237.347C131.376 237.524 131.865 237.521 132.299 237.339L177.667 218.041V157.363C177.666 156.939 177.497 156.534 177.197 156.234C176.896 155.935 176.489 155.767 176.064 155.766H85.719C85.294 155.767 84.8866 155.935 84.5861 156.234C84.2856 156.534 84.1166 156.939 84.1161 157.363L84.116 217.995Z" fill="#3F3D56"/>
<path d="M211.473 203.955H211.414L177.958 218.185L132.182 237.654C132.003 237.729 131.811 237.768 131.617 237.769C131.423 237.77 131.231 237.733 131.051 237.66L83.824 218.144L49.5453 203.978L49.4929 203.955H49.4346C48.8937 203.956 48.3752 204.17 47.9927 204.551C47.6103 204.932 47.3951 205.448 47.3945 205.987V294.234C47.3951 294.773 47.6103 295.289 47.9927 295.67C48.3752 296.051 48.8937 296.266 49.4346 296.266H211.473C212.013 296.266 212.532 296.051 212.914 295.67C213.297 295.289 213.512 294.773 213.513 294.234V205.987C213.512 205.448 213.297 204.932 212.914 204.551C212.532 204.17 212.013 203.956 211.473 203.955ZM212.93 294.234C212.93 294.619 212.776 294.988 212.503 295.26C212.23 295.532 211.859 295.685 211.473 295.686H49.4346C49.0481 295.685 48.6776 295.532 48.4044 295.26C48.1311 294.988 47.9776 294.619 47.9774 294.234V205.987C47.9779 205.612 48.1241 205.251 48.3853 204.981C48.6466 204.71 49.0027 204.551 49.3792 204.536L83.824 218.771L130.827 238.197C131.336 238.403 131.906 238.4 132.412 238.189L177.958 218.815L211.531 204.536C211.907 204.552 212.262 204.712 212.523 204.982C212.783 205.252 212.929 205.612 212.93 205.987V294.234Z" fill="#3F3D56"/>
<path d="M124.277 178.106H92.2188C91.601 178.105 91.0089 177.86 90.5724 177.424C90.1358 176.989 89.8906 176.399 89.8906 175.783C89.8906 175.168 90.1358 174.578 90.5724 174.142C91.0089 173.707 91.601 173.462 92.2188 173.461H124.277C124.894 173.462 125.487 173.707 125.923 174.142C126.36 174.578 126.605 175.168 126.605 175.783C126.605 176.399 126.36 176.989 125.923 177.424C125.487 177.86 124.894 178.105 124.277 178.106Z" fill="#4163E7"/>
<path d="M107.664 168.236H92.2182C91.5998 168.236 91.0068 167.992 90.5696 167.556C90.1324 167.121 89.8867 166.53 89.8867 165.914C89.8867 165.298 90.1324 164.707 90.5696 164.272C91.0068 163.836 91.5998 163.592 92.2182 163.592H107.664C108.283 163.592 108.876 163.836 109.313 164.272C109.75 164.707 109.996 165.298 109.996 165.914C109.996 166.53 109.75 167.121 109.313 167.556C108.876 167.992 108.283 168.236 107.664 168.236Z" fill="#4163E7"/>
<path d="M154.867 201.326H105.906C105.289 201.325 104.696 201.08 104.26 200.645C103.823 200.209 103.578 199.619 103.578 199.004C103.578 198.389 103.823 197.798 104.26 197.363C104.696 196.928 105.289 196.683 105.906 196.682H154.867C155.485 196.683 156.077 196.928 156.514 197.363C156.95 197.798 157.196 198.389 157.196 199.004C157.196 199.619 156.95 200.209 156.514 200.645C156.077 201.08 155.485 201.325 154.867 201.326Z" fill="#CCCCCC"/>
<path d="M154.867 212.068H105.906C105.287 212.068 104.694 211.824 104.257 211.388C103.82 210.953 103.574 210.362 103.574 209.746C103.574 209.13 103.82 208.54 104.257 208.104C104.694 207.668 105.287 207.424 105.906 207.424H154.867C155.485 207.424 156.078 207.668 156.515 208.104C156.953 208.54 157.198 209.13 157.198 209.746C157.198 210.362 156.953 210.953 156.515 211.388C156.078 211.824 155.485 212.068 154.867 212.068Z" fill="#CCCCCC"/>
<path fillRule="evenodd" clipRule="evenodd" d="M192.627 274.385C193.93 275.688 196.042 275.688 197.344 274.385L200.77 270.959L194.986 265.174L189.201 270.959L192.627 274.385Z" fill="#4163E7"/>
<path fillRule="evenodd" clipRule="evenodd" d="M189.202 282.531L194.986 288.315L200.771 282.531L197.345 279.105C196.042 277.802 193.93 277.802 192.628 279.105L189.202 282.531Z" fill="#4163E7"/>
<path fillRule="evenodd" clipRule="evenodd" d="M200.769 273.361L199.743 274.388C198.44 275.69 198.44 277.802 199.743 279.105L200.769 280.131L204.154 276.746L200.769 273.361Z" fill="#99AEFF"/>
<path d="M183.416 276.744L189.201 270.959L192.627 274.385C193.93 275.688 193.93 277.8 192.627 279.102L189.201 282.528L183.416 276.744Z" fill="#2148E0"/>
</g>
<defs>
<clipPath id="clip0_997_51376">
<rect width="250" height="444" fill="white"/>
</clipPath>
</defs>
</svg>
