<svg width="344" height="344" viewBox="0 0 344 344" fill="none" xmlns="http://www.w3.org/2000/svg">
<path fill-rule="evenodd" clip-rule="evenodd" d="M152.553 149.247C163.748 160.442 181.899 160.442 193.094 149.247L248.687 93.6535L172.823 17.7883L96.9594 93.6527L152.553 149.247Z" fill="#4163E7"/>
<path fill-rule="evenodd" clip-rule="evenodd" d="M96.9586 245.385L172.825 321.25L248.69 245.385L193.095 189.79C181.9 178.595 163.749 178.595 152.554 189.79L96.9586 245.385Z" fill="#4163E7"/>
<path fill-rule="evenodd" clip-rule="evenodd" d="M248.684 125.126L224.561 149.249C213.366 160.444 213.366 178.595 224.561 189.79L248.684 213.913L293.078 169.52L248.684 125.126Z" fill="#99AEFF"/>
<path d="M21.0934 169.518L96.9594 93.6527L152.553 149.247C163.748 160.442 163.748 178.593 152.553 189.788L96.958 245.382L21.0934 169.518Z" fill="#2148E0"/>
</svg>
