<svg width="171" height="40" viewBox="0 0 171 40" fill="none" xmlns="http://www.w3.org/2000/svg">
<path fillRule="evenodd" clipRule="evenodd" d="M17.6307 17.3531C18.9245 18.6549 21.0222 18.6549 22.3161 17.3531L28.7411 10.8888L19.9733 2.06727L11.2056 10.8887L17.6307 17.3531Z" fill="#4163E7"/>
<path fillRule="evenodd" clipRule="evenodd" d="M11.2056 28.5325L19.9736 37.354L28.7414 28.5325L22.3162 22.068C21.0224 20.7662 18.9247 20.7662 17.6309 22.068L11.2056 28.5325Z" fill="#4163E7"/>
<path fillRule="evenodd" clipRule="evenodd" d="M28.7409 14.5489L25.9529 17.354C24.6591 18.6557 24.6591 20.7662 25.9529 22.068L28.7409 24.873L33.8715 19.711L28.7409 14.5489Z" fill="#99AEFF"/>
<path d="M2.43761 19.7103L11.2056 10.8887L17.6307 17.3531C18.9245 18.6549 18.9245 20.7655 17.6307 22.0672L11.2054 28.5317L2.43761 19.7103Z" fill="#2148E0"/>
<path d="M167.552 10.666H170.416C170.814 10.666 171 10.8527 171 11.2527V28.746C171 29.146 170.814 29.3327 170.416 29.3327H167.552C167.154 29.3327 166.942 29.146 166.942 28.746V11.2527C166.942 10.8527 167.154 10.666 167.552 10.666Z" fill="#4162E7"/>
<path d="M150.912 10.666H152.477C153.829 10.666 154.652 11.0927 155.527 12.6927L164.307 28.7193C164.493 29.066 164.413 29.3327 163.989 29.3327H160.62C160.275 29.3327 160.143 29.2527 160.01 28.986L158.127 25.546H145.66L143.829 28.986C143.697 29.2527 143.538 29.3327 143.219 29.3327H139.771C139.32 29.3327 139.24 29.066 139.426 28.7193L148.126 12.6927C149.002 11.0927 149.798 10.666 150.912 10.666ZM151.495 14.6393L147.331 22.4527H156.455L152.238 14.6393C152.158 14.506 152.079 14.4527 151.946 14.4527H151.787C151.654 14.4527 151.575 14.506 151.495 14.6393Z" fill="#4162E7"/>
<path d="M123.127 10.666H129.254C134.612 10.666 136.681 12.586 136.681 17.706V22.2927C136.681 27.4127 134.612 29.3327 129.254 29.3327H123.127C117.769 29.3327 115.7 27.4127 115.7 22.2927V17.706C115.7 12.586 117.769 10.666 123.127 10.666ZM119.625 17.866V22.1327C119.625 24.9593 120.395 25.786 123.127 25.786H129.254C131.986 25.786 132.756 24.9593 132.756 22.1327V17.866C132.756 15.0393 131.986 14.2127 129.254 14.2127H123.127C120.395 14.2127 119.625 15.0393 119.625 17.866Z" fill="#4162E7"/>
<path d="M99.4935 10.666H105.621C110.979 10.666 113.048 12.586 113.048 17.706V22.2927C113.048 27.4127 110.979 29.3327 105.621 29.3327H99.4935C94.1354 29.3327 92.0664 27.4127 92.0664 22.2927V17.706C92.0664 12.586 94.1354 10.666 99.4935 10.666ZM95.9922 17.866V22.1327C95.9922 24.9593 96.7614 25.786 99.4935 25.786H105.621C108.353 25.786 109.122 24.9593 109.122 22.1327V17.866C109.122 15.0393 108.353 14.2127 105.621 14.2127H99.4935C96.7614 14.2127 95.9922 15.0393 95.9922 17.866Z" fill="#4162E7"/>
<path d="M70.8109 10.666H84.8694C88.079 10.666 89.5644 12.426 89.5644 15.0127V16.8793C89.5644 19.786 87.9728 21.4393 84.9224 21.4393H74.8427C73.8878 21.4393 73.4634 21.946 73.4634 22.9593V25.226C73.4634 25.5993 73.6226 25.786 73.9939 25.786H88.9278C89.3257 25.786 89.5379 25.9727 89.5379 26.3727V28.746C89.5379 29.146 89.3257 29.3327 88.9278 29.3327H72.0045C70.2273 29.3327 69.5376 28.6127 69.5376 27.066V22.9593C69.5376 20.026 71.1292 18.3727 74.1796 18.3727H84.2593C85.2142 18.3727 85.6386 17.866 85.6386 16.8793V15.7327C85.6386 14.7993 85.2407 14.2127 84.2328 14.2127H70.8109C70.413 14.2127 70.2273 14.026 70.2273 13.626V11.2527C70.2273 10.8527 70.413 10.666 70.8109 10.666Z" fill="#4162E7"/>
<path d="M49.2915 10.666H65.5781C65.976 10.666 66.1617 10.8527 66.1617 11.2527V13.626C66.1617 14.026 65.976 14.2127 65.5781 14.2127H51.2809C50.9095 14.2127 50.7504 14.3993 50.7504 14.7727V17.8127C50.7504 18.186 50.9095 18.3727 51.2809 18.3727H62.2094C65.2598 18.3727 66.8513 20.026 66.8513 22.9327V24.986C66.8513 27.5727 65.3659 29.3327 62.1563 29.3327H47.4612C47.0633 29.3327 46.8511 29.146 46.8511 28.746V26.3727C46.8511 25.9727 47.0633 25.786 47.4612 25.786H61.5197C62.5277 25.786 62.9256 25.1993 62.9256 24.266V22.9327C62.9256 21.946 62.5012 21.4393 61.5462 21.4393H49.2915C47.5142 21.4393 46.8246 20.746 46.8246 19.1727V12.9327C46.8246 11.386 47.5142 10.666 49.2915 10.666Z" fill="#4162E7"/>
</svg>
