<svg width="768" height="700" viewBox="0 0 768 700" fill="none" xmlns="http://www.w3.org/2000/svg">
<mask id="mask0_1240_62691" style="mask-type:luminance" maskUnits="userSpaceOnUse" x="-256" y="-75" width="1280" height="853">
<path d="M1023.54 -74.1172H-256V777.769H1023.54V-74.1172Z" fill="white"/>
</mask>
<g mask="url(#mask0_1240_62691)">
<g style="mix-blend-mode:multiply">
<path d="M-264.448 285.324C-155.666 305.349 -52.2032 349.699 59.2292 350.826C163.886 351.884 262.659 314.713 360.577 284.118C458.496 253.523 566.749 228.839 666.524 255.008C778.671 284.422 861.305 373.697 977.569 388.57C1137.78 409.064 1270.23 281.898 1429.58 257.224C1558.57 237.25 1687.37 286.722 1802.03 339.558C1868.67 370.267 1935.25 403.273 1986.95 449.694C2038.64 496.115 2074.29 558.273 2067.24 621.128C2058.97 694.864 1993.13 757.506 1914.73 793.203C1836.33 828.901 1746.22 842.035 1657.75 853.097C1126.67 919.498 584.966 930.246 51.4891 878.685C-145.534 859.643 -349.678 829.347 -509.197 731.772C-621.48 663.09 -705.275 556.24 -670.059 437.096C-645.602 354.355 -589.347 328.527 -497.407 302.333C-419.495 280.135 -346.331 270.251 -264.448 285.324L-264.448 285.324Z" fill="#90E2FF"/>
</g>
<g style="mix-blend-mode:multiply">
<path d="M-529.275 306.358C-420.493 326.384 -317.03 370.732 -205.598 371.86C-100.941 372.918 -3.91827 323.594 94.0005 292.999C191.919 262.404 301.922 249.872 401.696 276.042C513.844 305.456 596.478 394.731 712.742 409.604C872.949 430.098 1005.4 302.932 1164.75 278.258C1293.75 258.284 1422.54 307.756 1537.2 360.592C1603.84 391.302 1670.43 424.307 1722.12 470.728C1773.81 517.149 1809.46 579.307 1802.41 642.163C1794.15 715.898 1728.3 778.54 1649.9 814.238C1571.5 849.936 1481.39 863.069 1392.92 874.132C861.842 940.533 320.138 951.281 -213.339 899.719C-410.362 880.677 -614.506 850.381 -774.025 752.806C-886.308 684.124 -970.103 577.275 -934.887 458.13C-910.43 375.39 -854.175 349.562 -762.235 323.368C-684.323 301.17 -611.158 291.285 -529.275 306.358Z" fill="#90E2FF"/>
</g>
<g style="mix-blend-mode:multiply">
<path d="M-258.674 356.315C-149.893 376.34 -46.4297 420.689 65.0026 421.816C169.66 422.874 268.432 385.703 366.35 355.108C464.269 324.513 572.523 299.829 672.297 325.998C784.445 355.413 867.078 444.687 983.342 459.56C1143.55 480.054 1276 352.888 1435.35 328.214C1564.35 308.24 1693.14 357.712 1807.8 410.548C1874.45 441.257 1941.03 474.263 1992.72 520.684C2044.41 567.105 2080.06 629.263 2073.01 692.119C2064.75 765.855 1998.9 828.496 1920.5 864.193C1842.1 899.891 1752 913.025 1663.52 924.087C1132.44 990.488 590.739 1001.24 57.2626 949.675C-139.761 930.633 -343.904 900.337 -503.423 802.762C-615.707 734.08 -699.502 627.23 -664.285 508.086C-639.829 425.345 -583.573 399.517 -491.633 373.323C-413.722 351.126 -340.557 341.241 -258.674 356.314V356.315Z" fill="#90E2FF"/>
</g>
</g>
</svg>
