<svg width="54" height="36" viewBox="0 0 54 36" fill="none" xmlns="http://www.w3.org/2000/svg">
<g clipPath="url(#clip0_172_2546)">
<path d="M0 0H54V36H0" fill="#EE1C25"/>
<path d="M9.00002 3.60001L12.1741 13.3686L3.86426 7.33141H14.1358L5.8259 13.3686L9.00002 3.60001Z" fill="#FFFF00"/>
<path d="M18.7043 1.94345L18.4038 5.35402L16.6422 2.41818L19.793 3.75796L16.4565 4.52598L18.7043 1.94345Z" fill="#FFFF00"/>
<path d="M22.8922 5.94674L21.2917 8.97341L20.8074 5.58403L23.1914 8.04153L19.8183 7.45457L22.8922 5.94674Z" fill="#FFFF00"/>
<path d="M23.2907 11.9826L20.5947 14.0931L21.5352 10.801L22.7093 14.0173L19.8691 12.1054L23.2907 11.9826Z" fill="#FFFF00"/>
<path d="M18.635 14.516L18.4762 17.9361L16.5944 15.0758L19.798 16.2838L16.4962 17.1895L18.635 14.516Z" fill="#FFFF00"/>
</g>
<defs>
<clipPath id="clip0_172_2546">
<path d="M0 2C0 0.895431 0.895431 0 2 0H52C53.1046 0 54 0.895431 54 2V34C54 35.1046 53.1046 36 52 36H2C0.895429 36 0 35.1046 0 34V2Z" fill="white"/>
</clipPath>
</defs>
</svg>
