<svg width="54" height="36" viewBox="0 0 54 36" fill="none" xmlns="http://www.w3.org/2000/svg">
<g clipPath="url(#clip0_172_2577)">
<path d="M0 0V36H54V0H0Z" fill="white"/>
<path d="M13.8956 3.85503L8.90283 11.3438L13.8956 3.85503ZM10.7748 12.5918L15.7672 5.10303L10.7748 12.5918ZM17.6392 6.3514L12.6472 13.8398L17.6392 6.3514ZM36.3607 29.6487L38.6486 26.2167L36.3607 29.6487ZM39.0648 25.5927L41.3527 22.1603L39.0648 25.5927ZM43.2251 23.4083L40.9368 26.8407L43.2251 23.4083ZM40.5206 27.4647L38.2327 30.8967L40.5206 27.4647ZM40.1047 32.145L42.393 28.7127L40.1047 32.145ZM42.8092 28.0887L45.0967 24.6563L42.8092 28.0887ZM8.90321 24.6563L13.8956 32.145L8.90321 24.6563ZM15.7676 30.8967L13.4793 27.4647L15.7676 30.8967ZM13.0635 26.8407L10.7752 23.4083L13.0635 26.8407ZM12.6476 22.1603L17.6396 29.649L12.6476 22.1603ZM41.3531 13.8398L39.0652 10.4074L41.3531 13.8398ZM38.649 9.7834L36.3611 6.3514L38.649 9.7834ZM38.2331 5.1034L43.2255 12.5918L38.2331 5.1034ZM45.0975 11.3438L42.8092 7.9114L45.0975 11.3438ZM42.393 7.2874L40.1055 3.85503L42.393 7.2874Z" fill="black"/>
<path d="M14.52 31.729L13.272 32.5611L8.27881 25.0718L9.52686 24.2398L14.52 31.729ZM43.0171 29.1285L40.729 32.5611L39.481 31.729L41.769 28.2964L43.0171 29.1285ZM16.3911 30.481L15.144 31.313L12.855 27.8804L14.103 27.0484L16.3911 30.481ZM41.145 27.8804L38.8569 31.313L37.6089 30.481L39.897 27.0484L41.145 27.8804ZM18.2632 29.233L17.0151 30.065L12.0239 22.5767L13.272 21.7447L18.2632 29.233ZM39.2729 26.6324L36.9849 30.065L35.7368 29.233L38.0249 25.8003L39.2729 26.6324ZM45.0972 24.6558L45.7212 25.0718L43.4331 28.5044L42.1851 27.6724L44.4722 24.2408L45.0972 24.6558ZM13.687 26.4244L12.439 27.2564L10.1509 23.8248L11.3989 22.9927L13.687 26.4244ZM43.8491 23.8248L41.561 27.2564L40.313 26.4244L42.6011 22.9927L43.8491 23.8248ZM41.9771 22.5767L39.689 26.0083L38.4409 25.1763L40.729 21.7447L41.9771 22.5767ZM18.2632 6.76714L13.271 14.2554L12.0229 13.4234L17.0151 5.9351L18.2632 6.76714ZM41.9771 13.4234L40.729 14.2554L38.4409 10.8238L39.689 9.99174L41.9771 13.4234ZM16.3911 5.51909L11.3989 13.0074L10.1509 12.1753L15.1431 4.68706L16.3911 5.51909ZM43.8491 12.1753L42.6011 13.0074L37.6089 5.51909L38.8569 4.68706L43.8491 12.1753ZM14.52 4.27104L9.52686 11.7603L8.90283 11.3433L8.27881 10.9273L13.272 3.43901L14.52 4.27104ZM45.7212 10.9273L44.4731 11.7593L42.1851 8.32768L43.4331 7.49565L45.7212 10.9273ZM39.2729 9.36772L38.0249 10.1998L35.7368 6.76714L36.9849 5.9351L39.2729 9.36772ZM43.0171 6.87163L41.769 7.70366L39.481 4.27104L40.73 3.43901L43.0171 6.87163Z" fill="black"/>
<path d="M30.7442 20.496C30.2525 21.2336 29.6203 21.8671 28.8838 22.3604C28.1473 22.8536 27.3208 23.197 26.4516 23.3709C24.6961 23.722 22.8731 23.3614 21.3834 22.3684C19.8938 21.3754 18.8597 19.8313 18.5086 18.0758C18.1574 16.3203 18.5181 14.4972 19.5111 13.0076C20.1654 12.0213 21.0078 11.1737 21.9902 10.5133C22.9725 9.85303 24.0754 9.39297 25.2358 9.15951C26.3962 8.92605 27.5913 8.92378 28.7526 9.15283C29.9138 9.38187 31.0185 9.83774 32.0034 10.4943C32.9882 11.1509 33.8339 11.9953 34.4919 12.9792C35.15 13.963 35.6075 15.067 35.8383 16.228C36.069 17.3889 36.0685 18.5839 35.8368 19.7447C35.6051 20.9054 35.1467 22.009 34.4878 22.9924" fill="#CD2E3A"/>
<path d="M26.9998 18C27.6619 17.0069 28.6913 16.3175 29.8616 16.0834C31.0319 15.8494 32.2473 16.0898 33.2404 16.7518C34.2335 17.4138 34.9229 18.4433 35.157 19.6136C35.391 20.7839 35.1506 21.9993 34.4886 22.9924C33.833 23.9758 32.9901 24.8205 32.008 25.4782C31.026 26.1359 29.924 26.5937 28.765 26.8255C26.4244 27.2937 23.9936 26.8128 22.0075 25.4888C20.0213 24.1647 18.6425 22.1059 18.1743 19.7652C17.7062 17.4245 18.187 14.9938 19.5111 13.0076C18.8491 14.0007 18.6086 15.2161 18.8427 16.3864C19.0768 17.5568 19.7662 18.5862 20.7593 19.2482C21.7523 19.9102 22.9677 20.1506 24.1381 19.9166C25.3084 19.6825 26.3378 18.9931 26.9998 18Z" fill="#0047A0"/>
</g>
<defs>
<clipPath id="clip0_172_2577">
<path d="M0 2C0 0.895431 0.895431 0 2 0H52C53.1046 0 54 0.895431 54 2V34C54 35.1046 53.1046 36 52 36H2C0.895429 36 0 35.1046 0 34V2Z" fill="white"/>
</clipPath>
</defs>
</svg>
