<svg width="54" height="36" viewBox="0 0 54 36" fill="none" xmlns="http://www.w3.org/2000/svg">
<g clipPath="url(#clip0_172_2554)">
<path d="M0 -1.52588e-05H54V36H0V-1.52588e-05Z" fill="#E30A17"/>
<path d="M25.0502 18L33.191 15.3552L28.1594 22.2798V13.7202L33.191 20.6448L25.0502 18ZM25.6052 22.8126C24.5625 24.4603 23.0128 25.7249 21.1894 26.4159C19.366 27.1069 17.3675 27.1871 15.4947 26.6443C13.6218 26.1015 11.9759 24.9651 10.8046 23.4061C9.63329 21.8471 9 19.9499 9 18C9 16.0501 9.63329 14.1529 10.8046 12.5939C11.9759 11.0349 13.6218 9.89854 15.4947 9.35573C17.3675 8.81293 19.366 8.89307 21.1894 9.5841C23.0128 10.2751 24.5625 11.5397 25.6052 13.1874C24.6315 12.1039 23.352 11.3412 21.9358 11.0002C20.5195 10.6591 19.0331 10.7556 17.6729 11.277C16.3127 11.7984 15.1426 12.7201 14.3172 13.9205C13.4918 15.1208 13.0499 16.5433 13.0499 18C13.0499 19.4567 13.4918 20.8792 14.3172 22.0796C15.1426 23.2799 16.3127 24.2016 17.6729 24.723C19.0331 25.2444 20.5195 25.3409 21.9358 24.9999C23.352 24.6588 24.6315 23.8961 25.6052 22.8126Z" fill="white"/>
</g>
<defs>
<clipPath id="clip0_172_2554">
<path d="M0 2C0 0.895431 0.895431 0 2 0H52C53.1046 0 54 0.895431 54 2V34C54 35.1046 53.1046 36 52 36H2C0.895429 36 0 35.1046 0 34V2Z" fill="white"/>
</clipPath>
</defs>
</svg>
