<svg width="302" height="364" viewBox="0 0 302 364" fill="none" xmlns="http://www.w3.org/2000/svg">
<g clipPath="url(#clip0_2028_63777)">
<rect width="302" height="364" rx="8" fill="#4163E7"/>
<g style="mix-blend-mode:color-dodge">
<path fillRule="evenodd" clipRule="evenodd" d="M57.8812 -18.3654L82.3577 6.11053L106.834 -18.3655L95.0787 -30.1206C88.0531 -37.1463 76.6622 -37.1463 69.6366 -30.1207L57.8812 -18.3654Z" fill="#4163E7"/>
<path fillRule="evenodd" clipRule="evenodd" d="M165.192 -18.3674L189.668 6.10857L214.144 -18.3674L202.389 -30.1226C195.364 -37.1482 183.973 -37.1483 176.947 -30.1226L165.192 -18.3674Z" fill="#4163E7"/>
<path fillRule="evenodd" clipRule="evenodd" d="M272.504 -18.3654L296.981 6.11053L321.457 -18.3655L309.702 -30.1206C302.676 -37.1463 291.285 -37.1463 284.26 -30.1207L272.504 -18.3654Z" fill="#4163E7"/>
<path fillRule="evenodd" clipRule="evenodd" d="M11.2784 56.8566C18.3041 63.8822 29.695 63.8822 36.7206 56.8566L48.4753 45.1019L23.9993 20.6257L-0.476439 45.1017L11.2784 56.8566Z" fill="#4163E7"/>
<path fillRule="evenodd" clipRule="evenodd" d="M-0.476346 94.0545L24.0001 118.53L48.4764 94.0545L36.7212 82.2993C29.6955 75.2736 18.3047 75.2736 11.279 82.2992L-0.476346 94.0545Z" fill="#4163E7"/>
<path fillRule="evenodd" clipRule="evenodd" d="M48.4762 55.2555L46.8745 56.8572C39.849 63.8828 39.849 75.2735 46.8746 82.2992L48.4762 83.9008L62.7988 69.5782L48.4762 55.2555Z" fill="#99AEFF"/>
<path d="M-24.9529 69.5779L-0.476439 45.1017L11.2784 56.8565C18.3041 63.8822 18.304 75.2731 11.2783 82.2988L-0.476931 94.0539L-24.9529 69.5779Z" fill="#2148E0"/>
<path fillRule="evenodd" clipRule="evenodd" d="M118.589 56.8546C125.615 63.8803 137.006 63.8803 144.031 56.8546L155.786 45.1L131.31 20.6237L106.834 45.0997L118.589 56.8546Z" fill="#4163E7"/>
<path fillRule="evenodd" clipRule="evenodd" d="M106.834 94.0525L131.311 118.528L155.787 94.0525L144.032 82.2973C137.006 75.2717 125.615 75.2717 118.59 82.2973L106.834 94.0525Z" fill="#4163E7"/>
<path fillRule="evenodd" clipRule="evenodd" d="M155.787 55.2535L154.185 56.8552C147.16 63.8809 147.16 75.2716 154.185 82.2972L155.787 83.8988L170.109 69.5762L155.787 55.2535Z" fill="#99AEFF"/>
<path d="M82.3576 69.576L106.834 45.0997L118.589 56.8545C125.615 63.8802 125.615 75.2712 118.589 82.2968L106.834 94.0519L82.3576 69.576Z" fill="#2148E0"/>
<path fillRule="evenodd" clipRule="evenodd" d="M225.901 56.8546C232.927 63.8803 244.318 63.8803 251.344 56.8546L263.098 45.1L238.622 20.6237L214.147 45.0997L225.901 56.8546Z" fill="#4163E7"/>
<path fillRule="evenodd" clipRule="evenodd" d="M214.147 94.0525L238.623 118.528L263.099 94.0525L251.344 82.2973C244.319 75.2717 232.928 75.2717 225.902 82.2973L214.147 94.0525Z" fill="#4163E7"/>
<path fillRule="evenodd" clipRule="evenodd" d="M263.099 55.2535L261.498 56.8552C254.472 63.8809 254.472 75.2716 261.498 82.2972L263.099 83.8988L277.422 69.5762L263.099 55.2535Z" fill="#99AEFF"/>
<path d="M189.67 69.576L214.147 45.0997L225.901 56.8545C232.927 63.8802 232.927 75.2712 225.901 82.2968L214.146 94.0519L189.67 69.576Z" fill="#2148E0"/>
<path d="M296.981 69.5779L321.457 45.1017L333.212 56.8565C340.238 63.8822 340.238 75.2731 333.212 82.2988L321.457 94.0539L296.981 69.5779Z" fill="#2148E0"/>
<path fillRule="evenodd" clipRule="evenodd" d="M-0.478911 167.677L-2.08057 169.279C-9.10609 176.305 -9.10607 187.695 -2.0805 194.721L-0.478911 196.323L13.8437 182L-0.478911 167.677Z" fill="#99AEFF"/>
<path fillRule="evenodd" clipRule="evenodd" d="M69.6359 169.278C76.6615 176.304 88.0524 176.304 95.0781 169.278L106.833 157.524L82.3567 133.048L57.881 157.524L69.6359 169.278Z" fill="#4163E7"/>
<path fillRule="evenodd" clipRule="evenodd" d="M57.8811 206.476L82.3576 230.952L106.834 206.476L95.0786 194.721C88.0529 187.696 76.6621 187.695 69.6364 194.721L57.8811 206.476Z" fill="#4163E7"/>
<path fillRule="evenodd" clipRule="evenodd" d="M106.834 167.677L105.232 169.279C98.2064 176.305 98.2064 187.695 105.232 194.721L106.834 196.323L121.156 182L106.834 167.677Z" fill="#99AEFF"/>
<path d="M33.4045 182L57.881 157.524L69.6358 169.278C76.6615 176.304 76.6615 187.695 69.6357 194.721L57.8805 206.476L33.4045 182Z" fill="#2148E0"/>
<path fillRule="evenodd" clipRule="evenodd" d="M176.948 169.278C183.974 176.304 195.365 176.304 202.391 169.278L214.145 157.524L189.669 133.048L165.193 157.524L176.948 169.278Z" fill="#4163E7"/>
<path fillRule="evenodd" clipRule="evenodd" d="M165.194 206.476L189.67 230.952L214.146 206.476L202.391 194.721C195.365 187.696 183.975 187.695 176.949 194.721L165.194 206.476Z" fill="#4163E7"/>
<path fillRule="evenodd" clipRule="evenodd" d="M214.146 167.677L212.544 169.279C205.519 176.305 205.519 187.695 212.544 194.721L214.146 196.323L228.469 182L214.146 167.677Z" fill="#99AEFF"/>
<path d="M140.717 182L165.193 157.524L176.948 169.278C183.974 176.304 183.974 187.695 176.948 194.721L165.193 206.476L140.717 182Z" fill="#2148E0"/>
<path fillRule="evenodd" clipRule="evenodd" d="M284.259 169.278C291.285 176.304 302.675 176.304 309.701 169.278L321.456 157.524L296.98 133.048L272.504 157.524L284.259 169.278Z" fill="#4163E7"/>
<path fillRule="evenodd" clipRule="evenodd" d="M272.504 206.476L296.981 230.952L321.457 206.476L309.702 194.721C302.676 187.696 291.285 187.695 284.259 194.721L272.504 206.476Z" fill="#4163E7"/>
<path d="M248.028 182L272.504 157.524L284.259 169.278C291.285 176.304 291.285 187.695 284.259 194.721L272.504 206.476L248.028 182Z" fill="#2148E0"/>
<path fillRule="evenodd" clipRule="evenodd" d="M11.2786 281.702C18.3042 288.728 29.6951 288.728 36.7208 281.702L48.4754 269.948L23.9994 245.471L-0.476317 269.947L11.2786 281.702Z" fill="#4163E7"/>
<path fillRule="evenodd" clipRule="evenodd" d="M-0.476224 318.9L24.0003 343.376L48.4765 318.9L36.7213 307.145C29.6956 300.119 18.3048 300.119 11.2791 307.145L-0.476224 318.9Z" fill="#4163E7"/>
<path fillRule="evenodd" clipRule="evenodd" d="M48.4763 280.101L46.8746 281.703C39.8491 288.729 39.8491 300.119 46.8747 307.145L48.4763 308.746L62.7989 294.424L48.4763 280.101Z" fill="#99AEFF"/>
<path d="M-24.9528 294.424L-0.476317 269.947L11.2785 281.702C18.3042 288.728 18.3042 300.119 11.2784 307.144L-0.476809 318.9L-24.9528 294.424Z" fill="#2148E0"/>
<path fillRule="evenodd" clipRule="evenodd" d="M118.589 281.702C125.615 288.728 137.006 288.728 144.031 281.702L155.786 269.948L131.31 245.471L106.834 269.947L118.589 281.702Z" fill="#4163E7"/>
<path fillRule="evenodd" clipRule="evenodd" d="M106.834 318.9L131.311 343.376L155.787 318.9L144.032 307.145C137.006 300.119 125.615 300.119 118.59 307.145L106.834 318.9Z" fill="#4163E7"/>
<path fillRule="evenodd" clipRule="evenodd" d="M155.787 280.101L154.185 281.703C147.16 288.729 147.16 300.119 154.185 307.145L155.787 308.746L170.109 294.424L155.787 280.101Z" fill="#99AEFF"/>
<path d="M82.3578 294.424L106.834 269.947L118.589 281.702C125.615 288.728 125.615 300.119 118.589 307.144L106.834 318.9L82.3578 294.424Z" fill="#2148E0"/>
<path fillRule="evenodd" clipRule="evenodd" d="M225.902 281.7C232.927 288.726 244.318 288.726 251.344 281.7L263.098 269.946L238.622 245.469L214.147 269.945L225.902 281.7Z" fill="#4163E7"/>
<path fillRule="evenodd" clipRule="evenodd" d="M214.147 318.898L238.623 343.374L263.1 318.898L251.344 307.143C244.319 300.117 232.928 300.117 225.902 307.143L214.147 318.898Z" fill="#4163E7"/>
<path fillRule="evenodd" clipRule="evenodd" d="M263.099 280.099L261.498 281.701C254.472 288.727 254.472 300.117 261.498 307.143L263.099 308.745L277.422 294.422L263.099 280.099Z" fill="#99AEFF"/>
<path d="M189.67 294.422L214.147 269.945L225.902 281.7C232.927 288.726 232.927 300.117 225.901 307.143L214.146 318.898L189.67 294.422Z" fill="#2148E0"/>
<path d="M296.981 294.424L321.457 269.947L333.212 281.702C340.238 288.728 340.238 300.119 333.212 307.144L321.457 318.9L296.981 294.424Z" fill="#2148E0"/>
<path fillRule="evenodd" clipRule="evenodd" d="M69.6359 394.12C76.6615 401.146 88.0524 401.146 95.0781 394.12L106.833 382.366L82.3567 357.889L57.881 382.365L69.6359 394.12Z" fill="#4163E7"/>
<path fillRule="evenodd" clipRule="evenodd" d="M176.946 394.12C183.972 401.146 195.363 401.146 202.389 394.12L214.143 382.366L189.667 357.889L165.192 382.365L176.946 394.12Z" fill="#4163E7"/>
<path fillRule="evenodd" clipRule="evenodd" d="M284.259 394.122C291.285 401.148 302.675 401.148 309.701 394.122L321.456 382.368L296.98 357.891L272.504 382.367L284.259 394.122Z" fill="#4163E7"/>
</g>
<path d="M237.91 163.955H237.852L204.395 178.185L158.619 197.654C158.44 197.729 158.249 197.768 158.054 197.769C157.86 197.77 157.668 197.733 157.488 197.66L110.261 178.144L75.9828 163.978L75.9304 163.955H75.8721C75.3312 163.956 74.8127 164.17 74.4302 164.551C74.0478 164.932 73.8326 165.448 73.832 165.987V254.234C73.8326 254.773 74.0478 255.289 74.4302 255.67C74.8127 256.051 75.3312 256.266 75.8721 256.266H237.91C238.451 256.266 238.97 256.051 239.352 255.67C239.734 255.289 239.95 254.773 239.95 254.234V165.987C239.95 165.448 239.734 164.932 239.352 164.551C238.97 164.17 238.451 163.956 237.91 163.955Z" fill="white"/>
<path d="M238.056 164.536C237.996 164.536 237.938 164.518 237.889 164.484L157.29 108.574C157.045 108.405 156.754 108.314 156.455 108.315C156.157 108.315 155.866 108.407 155.621 108.577L75.6025 164.483C75.5392 164.527 75.461 164.544 75.3851 164.531C75.3091 164.518 75.2416 164.475 75.1974 164.412C75.1531 164.349 75.1356 164.271 75.1488 164.196C75.162 164.12 75.2048 164.052 75.2677 164.008L155.286 108.101C155.629 107.863 156.036 107.735 156.454 107.734C156.872 107.734 157.28 107.86 157.624 108.098L238.223 164.008C238.274 164.043 238.312 164.093 238.332 164.152C238.352 164.21 238.353 164.274 238.334 164.333C238.315 164.392 238.278 164.443 238.228 164.48C238.178 164.516 238.118 164.536 238.056 164.536Z" fill="#3F3D56"/>
<path d="M80.1738 166.517L156.533 110.148L233.472 170.528L160.468 213.635L120.832 204.637L80.1738 166.517Z" fill="#E6E6E6"/>
<path d="M124.178 244.687H86.4545C85.9871 244.687 85.5385 244.503 85.2075 244.174C84.8765 243.846 84.6901 243.399 84.6895 242.934C84.6888 242.468 84.8738 242.021 85.2038 241.692C85.5338 241.362 85.9819 241.176 86.4493 241.176H124.178C124.645 241.175 125.094 241.359 125.425 241.688C125.756 242.017 125.942 242.463 125.943 242.929C125.944 243.394 125.759 243.841 125.429 244.171C125.099 244.5 124.651 244.686 124.183 244.687H124.178Z" fill="#2148E0"/>
<path d="M99.9895 237.138H86.4552C85.988 237.138 85.5398 236.954 85.209 236.625C84.8783 236.296 84.6921 235.85 84.6914 235.385C84.6907 234.92 84.8756 234.473 85.2053 234.143C85.5351 233.814 85.9828 233.628 86.45 233.627H99.9895C100.221 233.626 100.45 233.671 100.665 233.759C100.879 233.847 101.073 233.976 101.237 234.139C101.401 234.302 101.532 234.495 101.621 234.708C101.709 234.921 101.755 235.149 101.756 235.38C101.756 235.61 101.711 235.839 101.623 236.052C101.534 236.265 101.405 236.459 101.241 236.622C101.077 236.786 100.883 236.915 100.669 237.004C100.456 237.092 100.226 237.138 99.9948 237.138H99.9895Z" fill="#4163E7"/>
<path d="M157.607 197.914C157.32 197.914 157.036 197.859 156.771 197.751L109.678 178.288V117.364C109.678 116.825 109.894 116.309 110.276 115.928C110.658 115.547 111.177 115.333 111.718 115.332H202.063C202.604 115.333 203.122 115.547 203.505 115.928C203.887 116.309 204.102 116.825 204.103 117.364V178.33L204.014 178.368L158.469 197.741C158.196 197.856 157.903 197.914 157.607 197.914Z" fill="white"/>
<path d="M157.608 198.058C157.303 198.058 157 197.999 156.717 197.884L109.533 178.383V117.363C109.534 116.785 109.764 116.232 110.174 115.824C110.584 115.416 111.139 115.186 111.719 115.186H202.064C202.643 115.186 203.199 115.416 203.609 115.824C204.019 116.232 204.249 116.785 204.25 117.363V178.425L158.527 197.874C158.236 197.995 157.924 198.058 157.608 198.058ZM110.116 177.995L156.939 197.347C157.376 197.524 157.865 197.521 158.299 197.339L203.667 178.041V117.363C203.666 116.939 203.497 116.534 203.197 116.234C202.896 115.935 202.489 115.767 202.064 115.766H111.719C111.294 115.767 110.887 115.935 110.586 116.234C110.286 116.534 110.117 116.939 110.116 117.363L110.116 177.995Z" fill="#3F3D56"/>
<path d="M237.473 163.955H237.414L203.958 178.185L158.182 197.654C158.003 197.729 157.811 197.768 157.617 197.769C157.423 197.77 157.231 197.733 157.051 197.66L109.824 178.144L75.5453 163.978L75.4929 163.955H75.4346C74.8937 163.956 74.3752 164.17 73.9927 164.551C73.6103 164.932 73.3951 165.448 73.3945 165.987V254.234C73.3951 254.773 73.6103 255.289 73.9927 255.67C74.3752 256.051 74.8937 256.266 75.4346 256.266H237.473C238.013 256.266 238.532 256.051 238.914 255.67C239.297 255.289 239.512 254.773 239.513 254.234V165.987C239.512 165.448 239.297 164.932 238.914 164.551C238.532 164.17 238.013 163.956 237.473 163.955ZM238.93 254.234C238.93 254.619 238.776 254.988 238.503 255.26C238.23 255.532 237.859 255.685 237.473 255.686H75.4346C75.0481 255.685 74.6776 255.532 74.4044 255.26C74.1311 254.988 73.9776 254.619 73.9774 254.234V165.987C73.9779 165.612 74.1241 165.251 74.3853 164.981C74.6466 164.71 75.0027 164.551 75.3792 164.536L109.824 178.771L156.827 198.197C157.336 198.403 157.906 198.4 158.412 198.189L203.958 178.815L237.531 164.536C237.907 164.552 238.262 164.712 238.523 164.982C238.783 165.252 238.929 165.612 238.93 165.987V254.234Z" fill="#3F3D56"/>
<path d="M150.277 138.106H118.219C117.601 138.105 117.009 137.86 116.572 137.424C116.136 136.989 115.891 136.399 115.891 135.783C115.891 135.168 116.136 134.578 116.572 134.142C117.009 133.707 117.601 133.462 118.219 133.461H150.277C150.894 133.462 151.487 133.707 151.923 134.142C152.36 134.578 152.605 135.168 152.605 135.783C152.605 136.399 152.36 136.989 151.923 137.424C151.487 137.86 150.894 138.105 150.277 138.106Z" fill="#4163E7"/>
<path d="M133.664 128.236H118.218C117.6 128.236 117.007 127.992 116.57 127.556C116.132 127.121 115.887 126.53 115.887 125.914C115.887 125.298 116.132 124.707 116.57 124.272C117.007 123.836 117.6 123.592 118.218 123.592H133.664C134.283 123.592 134.876 123.836 135.313 124.272C135.75 124.707 135.996 125.298 135.996 125.914C135.996 126.53 135.75 127.121 135.313 127.556C134.876 127.992 134.283 128.236 133.664 128.236Z" fill="#4163E7"/>
<path d="M180.867 161.326H131.906C131.289 161.325 130.696 161.08 130.26 160.645C129.823 160.209 129.578 159.619 129.578 159.004C129.578 158.389 129.823 157.798 130.26 157.363C130.696 156.928 131.289 156.683 131.906 156.682H180.867C181.485 156.683 182.077 156.928 182.514 157.363C182.95 157.798 183.196 158.389 183.196 159.004C183.196 159.619 182.95 160.209 182.514 160.645C182.077 161.08 181.485 161.325 180.867 161.326Z" fill="#CCCCCC"/>
<path d="M180.867 172.068H131.906C131.287 172.068 130.694 171.824 130.257 171.388C129.82 170.953 129.574 170.362 129.574 169.746C129.574 169.13 129.82 168.54 130.257 168.104C130.694 167.668 131.287 167.424 131.906 167.424H180.867C181.485 167.424 182.078 167.668 182.515 168.104C182.953 168.54 183.198 169.13 183.198 169.746C183.198 170.362 182.953 170.953 182.515 171.388C182.078 171.824 181.485 172.068 180.867 172.068Z" fill="#CCCCCC"/>
<path fillRule="evenodd" clipRule="evenodd" d="M218.627 234.385C219.93 235.688 222.042 235.688 223.344 234.385L226.77 230.959L220.986 225.174L215.201 230.959L218.627 234.385Z" fill="#4163E7"/>
<path fillRule="evenodd" clipRule="evenodd" d="M215.202 242.531L220.986 248.315L226.771 242.531L223.345 239.105C222.042 237.802 219.93 237.802 218.628 239.105L215.202 242.531Z" fill="#4163E7"/>
<path fillRule="evenodd" clipRule="evenodd" d="M226.769 233.361L225.743 234.388C224.44 235.69 224.44 237.802 225.743 239.105L226.769 240.131L230.154 236.746L226.769 233.361Z" fill="#99AEFF"/>
<path d="M209.416 236.744L215.201 230.959L218.627 234.385C219.93 235.688 219.93 237.8 218.627 239.102L215.201 242.528L209.416 236.744Z" fill="#2148E0"/>
</g>
<defs>
<clipPath id="clip0_2028_63777">
<rect width="302" height="364" rx="8" fill="white"/>
</clipPath>
</defs>
</svg>
