<svg width="618" height="452" viewBox="0 0 618 452" fill="none" xmlns="http://www.w3.org/2000/svg">
<rect x="160.016" y="60.7871" width="13.647" height="253.445" transform="rotate(37.0131 160.016 60.7871)" fill="#FA0605"/>
<path d="M232.326 19.9277L243.223 28.1432L170.693 124.348L159.796 116.133L232.326 19.9277Z" fill="#FA0605"/>
<rect x="241.768" y="117.52" width="13.647" height="60.577" transform="rotate(37.0131 241.768 117.52)" fill="#FA0605"/>
<path d="M145.842 134.652L156.74 142.868L10.8971 336.315L1.79439e-05 328.1L145.842 134.652Z" fill="#0001FC"/>
<rect x="302.677" y="91.7832" width="13.647" height="97.4645" transform="rotate(37.0131 302.677 91.7832)" fill="#0001FC"/>
<rect x="97.1739" y="254.27" width="13.647" height="88.7587" transform="rotate(37.0131 97.1739 254.27)" fill="#0001FC"/>
<rect x="123.791" y="274.021" width="13.647" height="44.6324" transform="rotate(37.0131 123.791 274.021)" fill="#0001FC"/>
<rect x="255.325" y="44.4844" width="13.647" height="129.162" transform="rotate(37.0131 255.325 44.4844)" fill="#F57C00"/>
<rect x="150.41" y="293.762" width="13.647" height="112.202" transform="rotate(37.0131 150.41 293.762)" fill="#F57C00"/>
<rect x="373.562" y="275.307" width="13.647" height="51.4386" transform="rotate(37.0131 373.562 275.307)" fill="#FA0605"/>
<rect x="511.59" y="104.012" width="13.647" height="77.1921" transform="rotate(37.0131 511.59 104.012)" fill="#FA0605"/>
<rect x="583.9" y="63.1445" width="13.647" height="130.381" transform="rotate(37.0131 583.9 63.1445)" fill="#FA0605"/>
<rect x="582.332" y="170.73" width="13.647" height="110.12" transform="rotate(37.0131 582.332 170.73)" fill="#FA0605"/>
<rect x="414.078" y="276.65" width="13.647" height="131.105" transform="rotate(37.0131 414.078 276.65)" fill="#0001FC"/>
<rect x="598.204" y="204.727" width="13.647" height="166.023" transform="rotate(37.0131 598.204 204.727)" fill="#0001FC"/>
<rect x="453.466" y="279.465" width="13.647" height="123.871" transform="rotate(37.0131 453.466 279.465)" fill="#0001FC"/>
<rect x="502.073" y="277.189" width="13.647" height="107.283" transform="rotate(37.0131 502.073 277.189)" fill="#0001FC"/>
<rect x="606.899" y="87.6973" width="13.647" height="122.928" transform="rotate(37.0131 606.899 87.6973)" fill="#F57C00"/>
<rect x="484.295" y="355.855" width="13.647" height="101.105" transform="rotate(37.0131 484.295 355.855)" fill="#F57C00"/>
<path fillRule="evenodd" clipRule="evenodd" d="M157.214 219.538C160.139 222.474 164.881 222.474 167.806 219.538L182.33 204.961L162.509 185.069L142.689 204.961L157.214 219.538Z" fill="#4163E7"/>
<path fillRule="evenodd" clipRule="evenodd" d="M142.689 244.746L162.51 264.638L182.331 244.746L167.806 230.169C164.881 227.233 160.139 227.233 157.214 230.169L142.689 244.746Z" fill="#4163E7"/>
<path fillRule="evenodd" clipRule="evenodd" d="M182.33 213.213L176.027 219.539C173.103 222.474 173.103 227.233 176.027 230.169L182.33 236.494L193.928 224.854L182.33 213.213Z" fill="#99AEFF"/>
<path d="M122.868 224.853L142.689 204.961L157.214 219.538C160.139 222.474 160.139 227.233 157.214 230.168L142.689 244.746L122.868 224.853Z" fill="#2148E0"/>
<path d="M496.131 204.457H502.607C503.506 204.457 503.926 204.878 503.926 205.78V245.227C503.926 246.129 503.506 246.55 502.607 246.55H496.131C495.231 246.55 494.752 246.129 494.752 245.227V205.78C494.752 204.878 495.231 204.457 496.131 204.457Z" fill="#0A0BD9"/>
<path d="M458.514 204.457H462.052C465.11 204.457 466.969 205.419 468.948 209.027L488.796 245.167C489.216 245.949 489.036 246.55 488.076 246.55H480.461C479.681 246.55 479.381 246.37 479.082 245.768L474.824 238.011H446.641L442.503 245.768C442.203 246.37 441.844 246.55 441.124 246.55H433.329C432.309 246.55 432.129 245.949 432.549 245.167L452.217 209.027C454.196 205.419 455.995 204.457 458.514 204.457ZM459.833 213.417L450.419 231.036H471.046L461.512 213.417C461.332 213.116 461.152 212.996 460.852 212.996H460.493C460.193 212.996 460.013 213.116 459.833 213.417Z" fill="#0A0BD9"/>
<path d="M395.702 204.457H409.554C421.667 204.457 426.344 208.787 426.344 220.332V230.675C426.344 242.221 421.667 246.55 409.554 246.55H395.702C383.589 246.55 378.912 242.221 378.912 230.675V220.332C378.912 208.787 383.589 204.457 395.702 204.457ZM387.787 220.693V230.314C387.787 236.688 389.526 238.552 395.702 238.552H409.554C415.73 238.552 417.469 236.688 417.469 230.314V220.693C417.469 214.319 415.73 212.455 409.554 212.455H395.702C389.526 212.455 387.787 214.319 387.787 220.693Z" fill="#0A0BD9"/>
<path d="M342.276 204.457H356.128C368.241 204.457 372.918 208.787 372.918 220.332V230.675C372.918 242.221 368.241 246.55 356.128 246.55H342.276C330.163 246.55 325.486 242.221 325.486 230.675V220.332C325.486 208.787 330.163 204.457 342.276 204.457ZM334.361 220.693V230.314C334.361 236.688 336.1 238.552 342.276 238.552H356.128C362.304 238.552 364.043 236.688 364.043 230.314V220.693C364.043 214.319 362.304 212.455 356.128 212.455H342.276C336.1 212.455 334.361 214.319 334.361 220.693Z" fill="#0A0BD9"/>
<path d="M277.435 204.457H309.216C316.472 204.457 319.83 208.426 319.83 214.259V218.468C319.83 225.023 316.232 228.751 309.336 228.751H286.549C284.391 228.751 283.431 229.893 283.431 232.178V237.29C283.431 238.131 283.791 238.552 284.631 238.552H318.391C319.29 238.552 319.77 238.973 319.77 239.875V245.227C319.77 246.129 319.29 246.55 318.391 246.55H280.133C276.116 246.55 274.557 244.927 274.557 241.439V232.178C274.557 225.564 278.154 221.835 285.05 221.835H307.837C309.996 221.835 310.955 220.693 310.955 218.468V215.882C310.955 213.778 310.056 212.455 307.777 212.455H277.435C276.535 212.455 276.116 212.034 276.116 211.132V205.78C276.116 204.878 276.535 204.457 277.435 204.457Z" fill="#0A0BD9"/>
<path d="M228.787 204.457H265.606C266.505 204.457 266.925 204.878 266.925 205.78V211.132C266.925 212.034 266.505 212.455 265.606 212.455H233.285C232.445 212.455 232.085 212.876 232.085 213.718V220.573C232.085 221.415 232.445 221.835 233.285 221.835H257.99C264.886 221.835 268.484 225.564 268.484 232.118V236.748C268.484 242.581 265.126 246.55 257.87 246.55H224.65C223.75 246.55 223.271 246.129 223.271 245.227V239.875C223.271 238.973 223.75 238.552 224.65 238.552H256.431C258.71 238.552 259.609 237.229 259.609 235.125V232.118C259.609 229.893 258.65 228.751 256.491 228.751H228.787C224.77 228.751 223.211 227.187 223.211 223.639V209.568C223.211 206.081 224.77 204.457 228.787 204.457Z" fill="#0A0BD9"/>
</svg>
